<?xml version="1.0" standalone="no"?>
<!DOCTYPE svg PUBLIC "-//W3C//DTD SVG 20010904//EN"
 "http://www.w3.org/TR/2001/REC-SVG-20010904/DTD/svg10.dtd">
<svg version="1.0" xmlns="http://www.w3.org/2000/svg"
 width="1280.000000pt" height="855.000000pt" viewBox="0 0 1280.000000 855.000000"
 preserveAspectRatio="xMidYMid meet">
<g transform="translate(0.000000,855.000000) scale(0.100000,-0.100000)"
fill="#000000" stroke="none">
<path d="M9445 8508 c13 -59 107 -626 108 -648 0 -25 -119 -369 -305 -880
-411 -1129 -749 -1865 -1161 -2526 -58 -93 -103 -171 -100 -174 7 -7 31 27
157 215 162 242 285 457 454 795 292 582 520 1143 901 2215 l120 340 -69 289
c-71 294 -77 326 -60 326 17 0 535 -620 548 -658 19 -50 10 -772 -12 -1032
-67 -794 -192 -1500 -372 -2108 -25 -84 -44 -156 -41 -158 12 -12 121 311 167
491 13 50 28 95 34 102 6 7 70 24 141 39 112 24 153 28 290 28 139 -1 173 -4
256 -26 100 -27 191 -66 196 -84 2 -5 -23 -21 -54 -34 -87 -36 -173 -126 -201
-210 -26 -76 -45 -213 -40 -285 l3 -50 -100 -7 c-299 -22 -695 -69 -745 -88
-30 -12 19 -9 355 21 668 58 1287 22 1675 -98 613 -190 1012 -405 1110 -600
148 -293 -349 -572 -1385 -778 -437 -87 -1428 -167 -2440 -195 -459 -14 -540
-23 -275 -34 605 -23 2169 66 2627 149 573 105 1023 243 1272 391 91 54 207
155 241 210 27 42 60 131 60 159 0 31 -38 123 -69 169 -141 204 -538 408
-1152 591 -112 34 -364 78 -514 90 -147 12 -484 24 -549 19 -39 -3 -76 -2 -82
3 -8 6 -1 51 26 159 39 154 54 195 96 251 25 33 168 153 182 153 21 0 146
-106 188 -158 25 -31 62 -93 83 -137 34 -69 46 -110 78 -255 l5 -25 10 25 c5
14 6 54 2 90 -32 311 -271 552 -619 625 -170 36 -415 17 -575 -46 -41 -16 -78
-25 -82 -21 -4 4 11 85 33 181 180 790 279 1775 242 2408 l-6 113 -320 345
c-176 190 -323 345 -328 345 -5 0 -7 -10 -4 -22z"/>
<path d="M630 6066 c-93 -20 -171 -51 -239 -97 -77 -52 -87 -64 -70 -86 8 -10
158 -191 334 -403 710 -856 1118 -1360 1193 -1473 21 -32 23 -41 13 -63 -12
-27 2 -68 33 -93 22 -19 20 -38 -7 -56 -13 -8 -33 -33 -46 -55 -19 -34 -21
-50 -17 -112 l4 -72 119 -44 c162 -61 518 -197 888 -340 913 -353 1439 -492
2115 -558 213 -21 736 -24 945 -5 137 12 388 43 461 57 66 12 34 -16 -111 -98
-482 -274 -1077 -575 -1712 -864 -380 -173 -739 -327 -778 -334 -22 -4 -551
-226 -1175 -493 -1686 -721 -1939 -833 -1948 -866 -3 -10 1 -12 14 -8 11 3
134 37 274 75 3104 853 4492 1302 5870 1902 129 56 266 116 304 132 l70 30
225 -5 c203 -5 337 -19 357 -39 3 -4 -28 -39 -69 -80 -132 -130 -172 -276
-133 -481 24 -126 113 -351 146 -372 17 -10 12 20 -26 143 -88 290 -92 428
-19 578 25 52 53 89 100 133 36 33 71 61 78 61 28 -1 152 -62 213 -105 254
-181 245 -494 -21 -700 -143 -111 -357 -175 -589 -175 -173 0 -367 36 -601
110 -53 18 -99 29 -102 27 -6 -7 125 -68 212 -100 39 -14 125 -38 190 -53 110
-26 136 -28 320 -29 239 0 319 16 484 96 191 93 323 255 350 429 21 132 -19
256 -117 362 -146 158 -357 233 -684 245 -93 3 -168 9 -168 13 0 4 190 103
423 219 439 219 650 332 630 338 -6 2 -65 -23 -130 -55 -473 -237 -1115 -528
-1207 -548 -100 -20 -106 -23 -106 -44 0 -20 -98 -64 -575 -255 -819 -329
-1710 -636 -2860 -985 -244 -74 -2168 -643 -2405 -711 -78 -23 -89 -23 -70 -5
16 15 190 88 1095 456 712 290 1126 461 1485 612 1098 463 1986 899 2664 1307
230 139 421 264 408 269 -6 2 -59 -24 -116 -58 -84 -49 -111 -60 -133 -56 -16
4 -104 0 -198 -8 -1014 -89 -1814 11 -2815 351 -91 31 -354 125 -585 210 -231
85 -507 185 -614 221 -149 50 -207 74 -246 104 -81 60 -91 97 -49 179 25 50
25 51 64 44 38 -6 39 -6 49 31 10 36 9 41 -23 74 -18 19 -56 70 -85 112 -221
332 -705 924 -1393 1702 -87 98 -158 185 -158 193 0 18 184 106 270 129 97 25
188 23 234 -4 44 -26 47 -27 39 -7 -18 49 -159 75 -273 51z"/>
<path d="M854 5972 c12 -21 720 -609 1056 -878 383 -308 776 -585 1100 -778
80 -48 249 -139 375 -202 l230 -115 665 55 c1860 155 2400 190 3105 202 396 7
496 16 330 29 -124 10 -1021 0 -1285 -15 -604 -32 -1266 -80 -2215 -160 l-590
-50 -180 90 c-399 197 -799 450 -1250 789 -151 113 -478 370 -830 651 -321
257 -530 413 -511 382z"/>
<path d="M2991 5002 c-70 -241 -94 -364 -60 -312 9 15 55 159 99 308 25 85 7
81 231 57 142 -15 164 -23 154 -55 -7 -25 -73 -578 -81 -672 -4 -57 -3 -88 4
-88 5 0 12 7 15 15 17 42 112 803 103 813 -6 5 -352 42 -397 42 l-36 0 -32
-108z"/>
<path d="M12090 3979 c-47 -17 -147 -46 -224 -65 -190 -48 -236 -74 -236 -133
0 -34 47 -77 130 -120 l79 -42 229 115 c230 116 295 155 259 156 -23 0 -142
-49 -334 -139 -170 -80 -156 -79 -245 -14 -27 19 -48 40 -48 47 0 17 52 39
195 81 131 39 265 97 291 126 23 26 8 24 -96 -12z"/>
<path d="M10868 3823 c-27 -2 -48 -7 -48 -10 0 -14 71 -540 75 -560 5 -23 8
-23 166 -23 122 0 161 3 165 13 6 18 -63 362 -78 390 l-13 22 -3 -25 c-2 -14
11 -97 28 -184 17 -87 29 -165 25 -174 -5 -13 -23 -14 -123 -8 -64 4 -121 11
-125 15 -9 9 -77 436 -77 482 0 16 3 29 8 30 4 0 67 2 141 4 124 4 152 8 139
20 -7 7 -225 14 -280 8z"/>
<path d="M10200 3493 c-25 -1 -130 -7 -235 -14 -198 -11 -423 -34 -433 -43
-16 -17 31 -21 236 -19 250 2 525 16 762 38 165 16 200 22 200 36 0 8 -419 10
-530 2z"/>
<path d="M1664 3436 c-290 -142 -1658 -887 -1647 -896 12 -11 312 -120 329
-120 16 0 432 174 1084 452 669 286 928 403 917 414 -11 12 -573 -213 -1487
-595 -277 -116 -513 -211 -523 -211 -16 0 -91 17 -219 51 -21 5 -38 15 -38 22
0 7 87 57 192 112 778 404 1450 764 1496 802 44 36 12 27 -104 -31z"/>
<path d="M8452 3404 c-32 -8 -22 -27 19 -37 52 -13 561 -20 579 -8 20 14 12
19 -46 31 -52 11 -513 22 -552 14z"/>
<path d="M7255 3340 c-550 -12 -955 -33 -955 -50 0 -15 112 -20 420 -20 496 0
1365 28 1468 46 81 15 -4 24 -273 28 -160 2 -456 1 -660 -4z"/>
<path d="M3890 3271 c0 -14 37 -19 200 -31 237 -17 528 -29 1003 -41 430 -11
649 -7 630 12 -17 17 -381 40 -943 59 -363 13 -890 13 -890 1z"/>
</g>
</svg>
